<svg width="82" height="77" viewBox="0 0 82 77" fill="none" xmlns="http://www.w3.org/2000/svg">
<path fill-rule="evenodd" clip-rule="evenodd" d="M72.0783 26.939C68.2674 26.751 63.9523 28.9895 62.7492 33.3332C62.0501 35.8568 62.6685 38.2046 64.2547 40.0124C65.6057 41.5533 66.251 43.1427 65.5923 45.3691C64.8126 48.0141 62.6416 49.5247 60.3765 50.3073C62.9642 49.6036 65.4377 48.0202 66.3652 45.0658C67.1247 42.6513 66.5064 40.71 64.9538 39.06C62.6147 36.5787 63.2869 32.9449 65.2361 30.494C66.6072 28.4375 69.1479 27.03 72.0783 26.939ZM28.5713 37.9073C35.1784 38.1439 39.0431 40.5887 44.1983 45.1629C46.2013 46.9404 48.3387 49.009 50.718 47.4621C47.848 47.1345 44.5949 43.7372 41.9736 41.9294C37.6316 38.9265 33.5182 37.6525 28.5646 37.9073H28.5713ZM35.8169 20.2598C36.3546 18.088 35.0574 15.6189 32.8125 14.6361C31.6295 14.1144 30.3995 14.1084 29.3846 14.5148C30.339 14.3389 31.4211 14.5391 32.4159 15.1639C34.4323 16.4258 35.3733 18.9555 34.6003 20.915C31.8379 22.5529 30.1508 24.749 30.1508 27.1574C30.1508 30.8519 34.1231 34.0429 39.8497 35.505C35.0372 33.867 31.8647 31.0764 31.8647 27.9036C31.8647 22.8623 39.8833 18.7735 49.7703 18.7735C50.4693 18.7735 51.1616 18.7917 51.8405 18.8342C51.7665 19.004 51.6792 19.1618 51.5716 19.3134C50.9062 20.2659 49.7905 20.6117 48.6747 20.3326C50.2475 20.9635 51.901 20.4782 52.647 19.0465C53.5275 17.3539 52.8016 14.9819 51.0272 13.7444C50.1265 13.1195 49.1385 12.9072 48.258 13.0649C49.0579 13.0831 49.9047 13.4289 50.6374 14.1084C51.8674 15.2489 52.3849 16.9839 52.0018 18.3792C50.4021 18.1001 48.6949 17.9485 46.9272 17.9485C42.6726 17.9485 38.7877 18.822 35.8303 20.2537L35.8169 20.2598ZM57.11 12.2581C63.2936 13.6109 67.6692 16.9475 67.6692 20.8543C67.6692 25.9563 60.1951 30.0936 50.9667 30.0936C46.0131 30.0936 41.5703 28.8985 38.5121 27.0058C41.3956 28.1827 45.0251 28.8864 48.9772 28.8864C58.3534 28.8864 65.9552 24.9189 65.9552 20.0293C65.9552 16.6745 62.3795 13.7565 57.1033 12.252L57.11 12.2581ZM66.2644 37.2885C71.2113 37.4341 75.1567 35.5292 76.7564 31.6224C79.6869 24.47 73.631 13.3318 63.2398 6.73753C58.8038 3.92266 54.2938 2.3939 50.3551 2.1209C53.8165 2.70329 57.5939 4.16532 61.331 6.53127C71.8095 13.1802 77.9057 24.4093 74.9551 31.6163C73.5503 35.0439 70.351 36.9427 66.2577 37.2825L66.2644 37.2885ZM12.3192 37.2279C5.61803 35.3836 0.960164 31.4465 0.133442 26.0351C-1.37885 16.1285 10.5246 5.0389 26.7297 1.26552C33.6459 -0.34817 40.2193 -0.36637 45.6098 0.913666C40.7638 0.203883 35.1851 0.440478 29.3644 1.79938C13.0316 5.60915 1.02738 16.7898 2.55311 26.7692C3.27902 31.5193 6.93541 35.141 12.3259 37.2218L12.3192 37.2279ZM46.0198 6.61013C40.2059 5.79115 33.7131 5.80935 28.0538 7.21678C24.2092 8.17529 19.9815 10.0195 18.4692 13.0406C18.2877 13.4046 18.1466 13.7808 18.0525 14.1629C17.9584 14.5451 17.9113 14.9334 17.9113 15.3217C17.8979 18.5551 20.9762 21.4246 24.1218 23.3659C24.5587 23.6328 25.009 23.8937 25.4661 24.1424C22.4952 22.1344 19.8134 19.362 19.8269 16.268C19.8269 15.8616 19.8807 15.4491 19.9747 15.0487C20.0756 14.6483 20.2167 14.2539 20.4116 13.8718C21.9979 10.699 26.4339 8.75768 30.4734 7.7567C36.1261 6.34927 42.5583 6.2704 48.4261 6.99839C47.6195 6.84672 46.8197 6.71933 46.0198 6.60406V6.61013ZM27.6236 25.6226C26.8977 30.2574 22.5625 33.8185 17.3198 33.8185C11.5731 33.8185 6.90852 29.5355 6.90852 24.2516C6.90852 21.0181 8.65606 18.1608 11.3244 16.4318C9.3618 18.1001 8.13852 20.4843 8.13852 23.1293C8.13852 28.1705 12.5813 32.2533 18.0659 32.2533C22.6095 32.2533 26.4406 29.4506 27.6236 25.6226Z" fill="black"/>
<path d="M3.47328 61.0064C3.47328 61.6354 3.71627 62.2214 4.20224 62.7645C4.70251 63.2934 5.30283 63.7651 6.0032 64.1796C6.71787 64.5798 7.42539 64.9943 8.12576 65.4231C8.82614 65.8376 9.41931 66.3522 9.90528 66.9668C10.4055 67.5814 10.6557 68.2603 10.6557 69.0036C10.6557 70.1756 10.2197 71.1333 9.34784 71.8765C8.49024 72.6198 7.32534 72.9914 5.85312 72.9914C4.38091 72.9914 2.92299 72.7127 1.47936 72.1553V71.1476C2.93728 71.8765 4.17365 72.241 5.18848 72.241C6.2176 72.241 7.01803 71.9909 7.58976 71.4906C8.1615 70.9903 8.44736 70.2971 8.44736 69.4109C8.44736 68.8106 8.21152 68.2675 7.73984 67.7815C7.26816 67.2812 6.69643 66.8524 6.02464 66.4951C5.35286 66.1235 4.68107 65.7447 4.00928 65.3588C3.33749 64.9728 2.76576 64.4869 2.29408 63.9008C1.8224 63.3005 1.58656 62.5787 1.58656 61.7354C1.58656 60.8921 1.95819 60.106 2.70144 59.377C3.45899 58.648 4.58101 58.2836 6.06752 58.2836C7.03947 58.2836 8.2687 58.5051 9.7552 58.9482L9.5408 60.4061C7.6112 59.5771 5.96032 59.1626 4.58816 59.1626C3.84491 59.5199 3.47328 60.1346 3.47328 61.0064ZM14.513 72.7341V58.5408H23.1105L22.8961 59.9773L18.9082 59.3127C18.2079 59.3127 17.436 59.4342 16.5927 59.6772V64.8871H21.3524V65.7018H16.5927V71.9623L23.2391 71.2977L23.0247 72.7341H14.513ZM38.0064 72.97H37.642L28.2512 61.2208H28.1655V72.7341H27.2221V58.5408H28.8087L36.9773 68.8535H37.0631V58.5408H38.0064V72.97ZM47.3729 72.7341H45.2932V59.57C44.8072 59.4556 44.3212 59.3984 43.8353 59.3984L40.9409 60.0631L40.8122 58.5408H51.8538L51.7466 60.0631L48.8308 59.3984C48.3448 59.3984 47.8588 59.4556 47.3729 59.57V72.7341ZM56.6437 58.5408V72.7341H54.6712V58.5408H56.6437ZM67.6362 58.2836C69.4943 58.2836 71.0309 58.8982 72.2458 60.1274C73.4607 61.3423 74.0682 63.0361 74.0682 65.2087C74.0682 66.6094 73.8252 67.8387 73.3392 68.8964C72.8533 69.9398 72.2172 70.7474 71.4311 71.3191C69.9017 72.434 68.2151 72.9914 66.3712 72.9914C64.5274 72.9914 62.998 72.3768 61.7831 71.1476C60.5824 69.904 59.9821 68.196 59.9821 66.0234C59.9821 64.8942 60.1393 63.8794 60.4538 62.9789C60.7825 62.0642 61.2042 61.3209 61.7187 60.7492C62.2476 60.1774 62.8551 59.6986 63.5411 59.3127C64.799 58.6266 66.164 58.2836 67.6362 58.2836ZM63.3267 70.29C63.6984 70.9189 64.1986 71.412 64.8275 71.7693C65.4565 72.1124 66.1783 72.2839 66.993 72.2839C67.822 72.2839 68.5581 72.0766 69.2013 71.6621C69.8445 71.2476 70.3448 70.7045 70.7021 70.0327C71.4311 68.6891 71.7955 67.2455 71.7955 65.7018C71.7955 63.8008 71.4168 62.2714 70.6592 61.1136C69.8159 59.813 68.4223 59.1626 66.4784 59.1626C65.092 59.6486 64.0414 60.4847 63.3267 61.6711C62.6121 62.8574 62.2547 64.201 62.2547 65.7018C62.2547 67.5314 62.6121 69.0607 63.3267 70.29Z" fill="black"/>
</svg>
